<svg width="60" height="60" viewBox="0 0 60 60" fill="none" xmlns="http://www.w3.org/2000/svg">
<g id="user-square">
<path id="Icon" d="M10.0001 54.5436C11.5065 55 13.5412 55 17 55H43C46.4588 55 48.4935 55 49.9999 54.5436M10.0001 54.5436C9.67705 54.4457 9.37833 54.3269 9.09507 54.1825C7.68386 53.4635 6.5365 52.3161 5.81745 50.9049C5 49.3006 5 47.2004 5 43V17C5 12.7996 5 10.6994 5.81745 9.09507C6.5365 7.68386 7.68386 6.5365 9.09507 5.81745C10.6994 5 12.7996 5 17 5H43C47.2004 5 49.3006 5 50.9049 5.81745C52.3161 6.5365 53.4635 7.68386 54.1825 9.09507C55 10.6994 55 12.7996 55 17V43C55 47.2004 55 49.3006 54.1825 50.9049C53.4635 52.3161 52.3161 53.4635 50.9049 54.1825C50.6217 54.3269 50.3229 54.4457 49.9999 54.5436M10.0001 54.5436C10.0009 52.5203 10.013 51.4497 10.1921 50.5491C10.9812 46.5822 14.0822 43.4812 18.0491 42.6921C19.0151 42.5 20.1767 42.5 22.5 42.5H37.5C39.8233 42.5 40.9849 42.5 41.9509 42.6921C45.9178 43.4812 49.0188 46.5822 49.8079 50.5491C49.987 51.4497 49.9991 52.5203 49.9999 54.5436M40 23.75C40 29.2728 35.5228 33.75 30 33.75C24.4772 33.75 20 29.2728 20 23.75C20 18.2272 24.4772 13.75 30 13.75C35.5228 13.75 40 18.2272 40 23.75Z" stroke="#1E1E1E" stroke-width="4" stroke-linecap="round" stroke-linejoin="round"/>
</g>
</svg>
