<svg width="60" height="60" viewBox="0 0 60 60" fill="none" xmlns="http://www.w3.org/2000/svg">
<g id="face-smile">
<path id="Icon" d="M22.4 33.8C22.4 33.8 25.25 37.6 30 37.6C34.75 37.6 37.6 33.8 37.6 33.8M35.7 24.3H35.719M24.3 24.3H24.319M49 30C49 40.4934 40.4934 49 30 49C19.5066 49 11 40.4934 11 30C11 19.5066 19.5066 11 30 11C40.4934 11 49 19.5066 49 30ZM36.65 24.3C36.65 24.8247 36.2247 25.25 35.7 25.25C35.1753 25.25 34.75 24.8247 34.75 24.3C34.75 23.7753 35.1753 23.35 35.7 23.35C36.2247 23.35 36.65 23.7753 36.65 24.3ZM25.25 24.3C25.25 24.8247 24.8247 25.25 24.3 25.25C23.7753 25.25 23.35 24.8247 23.35 24.3C23.35 23.7753 23.7753 23.35 24.3 23.35C24.8247 23.35 25.25 23.7753 25.25 24.3Z" stroke="#1E1E1E" stroke-width="4" stroke-linecap="round" stroke-linejoin="round"/>
<path id="Icon_2" d="M18.8889 5H18.3333C13.6662 5 11.3327 5 9.55008 5.90828C7.98206 6.70722 6.70722 7.98206 5.90828 9.55008C5 11.3327 5 13.6662 5 18.3333V18.8889M18.8889 55H18.3333C13.6662 55 11.3327 55 9.55008 54.0917C7.98206 53.2928 6.70722 52.0179 5.90828 50.4499C5 48.6673 5 46.3338 5 41.6667V41.1111M55 18.8889V18.3333C55 13.6662 55 11.3327 54.0917 9.55008C53.2928 7.98206 52.0179 6.70722 50.4499 5.90828C48.6673 5 46.3338 5 41.6667 5H41.1111M55 41.1111V41.6667C55 46.3338 55 48.6673 54.0917 50.4499C53.2928 52.0179 52.0179 53.2928 50.4499 54.0917C48.6673 55 46.3338 55 41.6667 55H41.1111" stroke="#1E1E1E" stroke-width="4" stroke-linecap="round" stroke-linejoin="round"/>
</g>
</svg>
