<svg width="60" height="60" viewBox="0 0 60 60" fill="none" xmlns="http://www.w3.org/2000/svg">
<g id="face-smile">
<path id="Icon" d="M18.8889 5H18.3333C13.6662 5 11.3327 5 9.55008 5.90828C7.98206 6.70722 6.70722 7.98206 5.90828 9.55008C5 11.3327 5 13.6662 5 18.3333V18.8889M18.8889 55H18.3333C13.6662 55 11.3327 55 9.55008 54.0917C7.98206 53.2928 6.70722 52.0179 5.90828 50.4499C5 48.6673 5 46.3338 5 41.6667V41.1111M55 18.8889V18.3333C55 13.6662 55 11.3327 54.0917 9.55008C53.2928 7.98206 52.0179 6.70722 50.4499 5.90828C48.6673 5 46.3338 5 41.6667 5H41.1111M55 41.1111V41.6667C55 46.3338 55 48.6673 54.0917 50.4499C53.2928 52.0179 52.0179 53.2928 50.4499 54.0917C48.6673 55 46.3338 55 41.6667 55H41.1111" stroke="#1E1E1E" stroke-width="4" stroke-linecap="round" stroke-linejoin="round"/>
<path id="Icon_2" d="M36.3762 22.9V17.8C36.3762 14.0445 33.3318 11 29.5762 11C25.8207 11 22.7762 14.0445 22.7762 17.8V22.9M15.2826 25.1983L14.2626 36.0783C13.9726 39.1718 13.8276 40.7186 14.3409 41.9133C14.7918 42.9628 15.582 43.8305 16.5848 44.3774C17.7264 45 19.2799 45 22.387 45H36.7654C39.8725 45 41.426 45 42.5676 44.3774C43.5704 43.8305 44.3606 42.9628 44.8115 41.9133C45.3248 40.7186 45.1798 39.1718 44.8898 36.0783L43.8698 25.1983C43.6249 22.5861 43.5025 21.28 42.915 20.2925C42.3976 19.4228 41.6332 18.7267 40.719 18.2927C39.681 17.8 38.3691 17.8 35.7454 17.8L23.407 17.8C20.7833 17.8 19.4714 17.8 18.4334 18.2927C17.5192 18.7267 16.7548 19.4228 16.2374 20.2925C15.65 21.28 15.5275 22.5861 15.2826 25.1983Z" stroke="#1E1E1E" stroke-width="4" stroke-linecap="round" stroke-linejoin="round"/>
</g>
</svg>
