<svg width="60" height="60" viewBox="0 0 60 60" fill="none" xmlns="http://www.w3.org/2000/svg">
<g id="car-01">
<path id="Icon" d="M12.5 32.5H20M5 22.5L10 25L13.1766 15.4702C13.8323 13.5031 14.1601 12.5196 14.7682 11.7925C15.3052 11.1503 15.9948 10.6533 16.7738 10.3469C17.6559 10 18.6926 10 20.7661 10H39.2339C41.3074 10 42.3441 10 43.2262 10.3469C44.0052 10.6533 44.6948 11.1503 45.2318 11.7925C45.8399 12.5196 46.1677 13.5031 46.8234 15.4702L50 25L55 22.5M40 32.5H47.5M17 25H43C47.2004 25 49.3006 25 50.9049 25.8175C52.3161 26.5365 53.4635 27.6839 54.1825 29.0951C55 30.6994 55 32.7996 55 37V43.75C55 44.9116 55 45.4925 54.9039 45.9755C54.5094 47.9589 52.9589 49.5094 50.9755 49.9039C50.4925 50 49.9116 50 48.75 50H47.5C44.7386 50 42.5 47.7614 42.5 45C42.5 44.3096 41.9404 43.75 41.25 43.75H18.75C18.0596 43.75 17.5 44.3096 17.5 45C17.5 47.7614 15.2614 50 12.5 50H11.25C10.0884 50 9.50754 50 9.02455 49.9039C7.0411 49.5094 5.49061 47.9589 5.09607 45.9755C5 45.4925 5 44.9116 5 43.75V37C5 32.7996 5 30.6994 5.81745 29.0951C6.5365 27.6839 7.68386 26.5365 9.09507 25.8175C10.6994 25 12.7996 25 17 25Z" stroke="#1E1E1E" stroke-width="4" stroke-linecap="round" stroke-linejoin="round"/>
</g>
</svg>
