<svg width="60" height="60" viewBox="0 0 60 60" fill="none" xmlns="http://www.w3.org/2000/svg">
<g id="users-03">
<path id="Icon" d="M45.1217 39.2986C48.7849 41.1388 51.9255 44.0919 54.218 47.7847C54.6719 48.516 54.8989 48.8816 54.9774 49.388C55.1369 50.4169 54.4333 51.6819 53.475 52.0891C53.0034 52.2894 52.4729 52.2894 51.4119 52.2894M40.0896 28.4678C43.8177 26.6151 46.3798 22.7679 46.3798 18.3224C46.3798 13.8768 43.8177 10.0296 40.0896 8.17692M35.0574 18.3224C35.0574 24.5755 29.9882 29.6447 23.735 29.6447C17.4819 29.6447 12.4127 24.5755 12.4127 18.3224C12.4127 12.0692 17.4819 7 23.735 7C29.9882 7 35.0574 12.0692 35.0574 18.3224ZM6.27152 47.1021C10.2829 41.0792 16.613 37.193 23.735 37.193C30.8571 37.193 37.1872 41.0792 41.1986 47.1021C42.0774 48.4216 42.5168 49.0813 42.4662 49.9241C42.4268 50.5803 41.9966 51.3836 41.4723 51.7802C40.7989 52.2894 39.8728 52.2894 38.0205 52.2894H9.44964C7.59734 52.2894 6.67119 52.2894 5.99779 51.7802C5.47346 51.3836 5.04331 50.5803 5.00392 49.9241C4.95334 49.0813 5.39273 48.4216 6.27152 47.1021Z" stroke="#1E1E1E" stroke-width="4" stroke-linecap="round" stroke-linejoin="round"/>
</g>
</svg>
