<svg width="60" height="60" viewBox="0 0 60 60" fill="none" xmlns="http://www.w3.org/2000/svg">
<g id="mask 1">
<path id="Vector" d="M57.4397 18.3158L57.4399 18.3157L57.4337 18.3059C56.5647 16.9403 55.3182 15.9423 53.7006 15.4445L53.6903 15.4414L53.6798 15.439C52.0608 15.0653 50.4396 15.3144 49.0678 16.0626L49.0677 16.0624L49.0571 16.0687L46.2836 17.7328C40.063 11.606 31.2505 8.08103 30.6499 7.84082L30.6489 7.8404L30.63 7.83284L30.6102 7.8279L30.1345 7.70896L30.0617 7.69077L29.9889 7.70896L29.5132 7.8279L29.4934 7.83284L29.4745 7.8404C28.8778 8.0791 20.1774 11.7219 13.9578 17.7368L11.0649 16.0679C8.1838 14.3165 4.31573 15.3201 2.56758 18.192C0.813679 21.0734 1.81692 24.9436 4.68987 26.6924L4.69293 26.6942L7.72608 28.4916C7.63836 29.0659 7.63837 29.7068 7.63838 30.2269V30.2423C7.63838 31.8417 7.95935 33.3286 8.39583 34.6983C4.97124 36.0082 2.52384 39.3773 2.52384 43.326C2.52384 48.4898 6.70482 52.5467 11.7445 52.5467H48.141C53.3049 52.5467 57.3617 48.3657 57.3617 43.326C57.3617 39.3751 54.9116 36.0045 51.4841 34.6961C51.922 33.2277 52.2471 31.7397 52.2471 30.2423C52.2471 29.8697 52.216 29.5298 52.1863 29.2177L52.1827 29.1801C52.16 28.9419 52.1391 28.7227 52.1314 28.5082L55.1877 26.6971C58.1929 25.0656 59.186 21.3094 57.4397 18.3158ZM6.3153 24.2799L6.30928 24.2761L6.30308 24.2726C4.78052 23.4025 4.24364 21.4519 5.21716 19.9375L5.2214 19.931L5.22528 19.9242C6.09532 18.4016 8.04591 17.8647 9.56029 18.8382L9.56017 18.8384L9.5699 18.8442L11.8793 20.2088C10.4992 21.8487 9.31852 23.6918 8.60738 25.7385L6.3153 24.2799ZM45.1674 34.2242H44.8674V34.5242V36.9031V37.2031H45.1674H47.2292C43.9772 41.9703 37.5878 45.2859 30.0617 45.2859C22.5356 45.2859 16.1462 41.9703 12.8942 37.2031H14.956H15.256V36.9031V34.5242V34.2242H14.956H11.8635H11.8621H11.8607H11.8593H11.8579H11.8565H11.8551H11.8537H11.8523H11.8509H11.8495H11.8482H11.8468H11.8454H11.844H11.8426H11.8412H11.8398H11.8384H11.837H11.8356H11.8342H11.8328H11.8314H11.83H11.8286H11.8272H11.8258H11.8245H11.8231H11.8217H11.8203H11.8189H11.8175H11.8161H11.8147H11.8133H11.8119H11.8105H11.8091H11.8077H11.8063H11.8049H11.8035H11.8022H11.8008H11.7994H11.798H11.7966H11.7952H11.7938H11.7924H11.791H11.7896H11.7882H11.7868H11.7854H11.784H11.7826H11.7812H11.7799H11.7785H11.7771H11.7757H11.7743H11.7729H11.7715H11.7701H11.7687H11.7673H11.7659H11.7645H11.7631H11.7617H11.7603H11.7589H11.7575H11.7562H11.7548H11.7534H11.752H11.7506H11.7492H11.7478H11.7464H11.745H11.7436H11.7422H11.7408H11.7394H11.738H11.7366H11.7352H11.7339H11.7325H11.7311H11.7297H11.7283H11.7269H11.7255H11.7241H11.7227H11.7213H11.7199H11.7185H11.7171H11.7157H11.7143H11.7129H11.7116H11.7102H11.7088H11.7074H11.706H11.7046H11.7032H11.7018H11.7004H11.699H11.6976H11.6962H11.6948H11.6934H11.692H11.6906H11.6892H11.6879H11.6865H11.6851H11.6837H11.6823H11.6809H11.6795H11.6781H11.6767H11.6753H11.6739H11.6725H11.6711H11.6697H11.6683H11.6669H11.6656H11.6642H11.6628H11.6614H11.66H11.6586H11.6572H11.6558H11.6544H11.653H11.6516H11.6502H11.6488H11.6474H11.646H11.6446H11.6433H11.6419H11.6405H11.6391H11.6377H11.6363H11.6349H11.6335H11.6321H11.6307H11.6293H11.6279H11.6265H11.6251H11.6237H11.6223H11.621H11.6196H11.6182H11.6168H11.6154H11.614H11.6126H11.6112H11.6098H11.6084H11.607H11.6056H11.6042H11.6028H11.6014H11.6H11.5986H11.5973H11.5959H11.5945H11.5931H11.5917H11.5903H11.5889H11.5875H11.5861H11.5847H11.5833H11.5819H11.5805H11.5791H11.5777H11.5763H11.575H11.5736H11.5722H11.5708H11.5694H11.568H11.5666H11.5652H11.5638H11.5624H11.561H11.5596H11.5582H11.5568H11.5554H11.554H11.5527H11.5513H11.5499H11.5485H11.5471H11.5457H11.5443H11.5429H11.5415H11.5401H11.5387H11.5373H11.5359H11.5345H11.5331H11.5317H11.5303H11.529H11.5276H11.5262H11.5248H11.5234H11.522H11.5206H11.5192H11.5178H11.5164H11.515H11.5136H11.5122H11.5108H11.5094H11.508H11.5067H11.5053H11.5039H11.5025H11.5011H11.4997H11.4983H11.4969H11.4955H11.4941H11.4927H11.4913H11.4899H11.4885H11.4871H11.4857H11.4844H11.483H11.4816H11.4802H11.4788H11.4774H11.476H11.4746H11.4732H11.4718H11.4704H11.469H11.4676H11.4662H11.4648H11.4634H11.4621H11.4607H11.4593H11.4579H11.4565H11.4551H11.4537H11.4523H11.4509H11.4495H11.4481H11.4467H11.4453H11.4439H11.4425H11.4411H11.4397H11.4384H11.437H11.4356H11.4342H11.4328H11.4314H11.43H11.4286H11.4272H11.4258H11.4244H11.423H11.4216H11.4202H11.4188H11.4174H11.4161H11.4147H11.4133H11.4119H11.4105H11.4091H11.4077H11.4063H11.4049H11.4035H11.4021H11.4007H11.3993H11.3979H11.3965H11.3951H11.3938H11.3924H11.391H11.3896H11.3882H11.3868H11.3854H11.384H11.3826H11.3812H11.3798H11.3784H11.377H11.3756H11.3742H11.3728H11.3715H11.3701H11.3687H11.3673H11.3659H11.3645H11.3631H11.3621C10.9454 33.0051 10.7362 31.6842 10.7362 30.3612C10.7362 27.208 12.2769 24.2489 14.5438 21.5886L16.9443 23.0072L17.2031 23.1601L17.3555 22.901L18.545 20.879L18.7009 20.6139L18.4321 20.4646L16.6501 19.4746C21.5812 14.8993 28.1311 11.8473 30.0619 10.9476C30.1288 10.9787 30.2012 11.0121 30.2789 11.048C32.4496 12.0506 38.7252 14.9492 43.486 19.3676L41.6806 20.4709L41.4289 20.6247L41.5784 20.879L42.7679 22.901L42.9174 23.1551L43.1741 23.0101L45.6999 21.5824C47.9526 24.122 49.3872 27.0838 49.3872 30.3612C49.3872 31.6842 49.178 33.0051 48.7613 34.2242H48.7603H48.7589H48.7575H48.7561H48.7547H48.7533H48.752H48.7506H48.7492H48.7478H48.7464H48.745H48.7436H48.7422H48.7408H48.7394H48.738H48.7366H48.7352H48.7338H48.7324H48.731H48.7297H48.7283H48.7269H48.7255H48.7241H48.7227H48.7213H48.7199H48.7185H48.7171H48.7157H48.7143H48.7129H48.7115H48.7101H48.7087H48.7074H48.706H48.7046H48.7032H48.7018H48.7004H48.699H48.6976H48.6962H48.6948H48.6934H48.692H48.6906H48.6892H48.6878H48.6864H48.6851H48.6837H48.6823H48.6809H48.6795H48.6781H48.6767H48.6753H48.6739H48.6725H48.6711H48.6697H48.6683H48.6669H48.6655H48.6641H48.6627H48.6614H48.66H48.6586H48.6572H48.6558H48.6544H48.653H48.6516H48.6502H48.6488H48.6474H48.646H48.6446H48.6432H48.6418H48.6404H48.6391H48.6377H48.6363H48.6349H48.6335H48.6321H48.6307H48.6293H48.6279H48.6265H48.6251H48.6237H48.6223H48.6209H48.6195H48.6181H48.6168H48.6154H48.614H48.6126H48.6112H48.6098H48.6084H48.607H48.6056H48.6042H48.6028H48.6014H48.6H48.5986H48.5972H48.5958H48.5944H48.5931H48.5917H48.5903H48.5889H48.5875H48.5861H48.5847H48.5833H48.5819H48.5805H48.5791H48.5777H48.5763H48.5749H48.5735H48.5721H48.5708H48.5694H48.568H48.5666H48.5652H48.5638H48.5624H48.561H48.5596H48.5582H48.5568H48.5554H48.554H48.5526H48.5512H48.5498H48.5485H48.5471H48.5457H48.5443H48.5429H48.5415H48.5401H48.5387H48.5373H48.5359H48.5345H48.5331H48.5317H48.5303H48.5289H48.5275H48.5261H48.5248H48.5234H48.522H48.5206H48.5192H48.5178H48.5164H48.515H48.5136H48.5122H48.5108H48.5094H48.508H48.5066H48.5052H48.5038H48.5025H48.5011H48.4997H48.4983H48.4969H48.4955H48.4941H48.4927H48.4913H48.4899H48.4885H48.4871H48.4857H48.4843H48.4829H48.4815H48.4802H48.4788H48.4774H48.476H48.4746H48.4732H48.4718H48.4704H48.469H48.4676H48.4662H48.4648H48.4634H48.462H48.4606H48.4592H48.4579H48.4565H48.4551H48.4537H48.4523H48.4509H48.4495H48.4481H48.4467H48.4453H48.4439H48.4425H48.4411H48.4397H48.4383H48.4369H48.4355H48.4342H48.4328H48.4314H48.43H48.4286H48.4272H48.4258H48.4244H48.423H48.4216H48.4202H48.4188H48.4174H48.416H48.4146H48.4132H48.4119H48.4105H48.4091H48.4077H48.4063H48.4049H48.4035H48.4021H48.4007H48.3993H48.3979H48.3965H48.3951H48.3937H48.3923H48.3909H48.3895H48.3882H48.3868H48.3854H48.384H48.3826H48.3812H48.3798H48.3784H48.377H48.3756H48.3742H48.3728H48.3714H48.37H48.3686H48.3672H48.3659H48.3645H48.3631H48.3617H48.3603H48.3589H48.3575H48.3561H48.3547H48.3533H48.3519H48.3505H48.3491H48.3477H48.3463H48.3449H48.3436H48.3422H48.3408H48.3394H48.338H48.3366H48.3352H48.3338H48.3324H48.331H48.3296H48.3282H48.3268H48.3254H48.324H48.3226H48.3213H48.3199H48.3185H48.3171H48.3157H48.3143H48.3129H48.3115H48.3101H48.3087H48.3073H48.3059H48.3045H48.3031H48.3017H48.3003H48.299H48.2976H48.2962H48.2948H48.2934H48.292H48.2906H48.2892H48.2878H48.2864H48.285H48.2836H48.2822H48.2808H48.2794H48.278H48.2766H48.2753H48.2739H48.2725H48.2711H48.2697H48.2683H48.2669H48.2655H48.2641H48.2627H48.2613H48.2599H45.1674ZM52.9352 18.3986L52.9352 18.3987L52.9449 18.4012C53.8084 18.617 54.4616 19.1556 54.9032 19.8142C55.7617 21.3279 55.2278 23.2904 53.807 24.2804L51.515 25.6347C50.8014 23.6771 49.6205 21.829 48.339 20.0962L50.5542 18.7249C51.3202 18.2887 52.1868 18.1847 52.9352 18.3986ZM39.1635 23.1057V22.8057H38.8635H21.141H20.841V23.1057V25.4846V25.7846H21.141H38.8635H39.1635V25.4846V23.1057ZM39.1635 29.7665V29.4665H38.8635H21.141H20.841V29.7665V32.1454V32.4454H21.141H38.8635H39.1635V32.1454V29.7665ZM39.1635 36.5462V36.2462H38.8635H21.141H20.841V36.5462V38.9251V39.2251H21.141H38.8635H39.1635V38.9251V36.5462ZM54.5018 43.4449C54.5018 46.9629 51.6661 49.6867 48.2599 49.6867H11.8635C8.34549 49.6867 5.62164 46.8511 5.62164 43.4449C5.62164 40.8137 7.32122 38.4897 9.70283 37.516C13.1639 43.8108 21.0462 48.1458 30.0617 48.1458C39.0772 48.1458 46.9595 43.8108 50.4206 37.516C52.8022 38.4897 54.5018 40.8137 54.5018 43.4449Z" fill="#1E1E1E" stroke="#1E1E1E" stroke-width="0.6"/>
</g>
</svg>
