<svg width="60" height="60" viewBox="0 0 60 60" fill="none" xmlns="http://www.w3.org/2000/svg">
<g id="image-user-check">
<path id="Icon" d="M40 12.5L45 17.5L55 7.5M55 30V43C55 47.2004 55 49.3006 54.1825 50.9049C53.4635 52.3161 52.3161 53.4635 50.9049 54.1825C49.3006 55 47.2004 55 43 55H17C12.7996 55 10.6994 55 9.09507 54.1825C7.68386 53.4635 6.5365 52.3161 5.81745 50.9049C5 49.3006 5 47.2004 5 43V17C5 12.7996 5 10.6994 5.81745 9.09507C6.5365 7.68386 7.68386 6.5365 9.09507 5.81745C10.6994 5 12.7996 5 17 5H30M5.36377 49.8158C6.53663 45.5965 10.4064 42.5 14.9994 42.5H32.4994C34.8227 42.5 35.9843 42.5 36.9503 42.6921C40.9172 43.4812 44.0182 46.5822 44.8073 50.5491C44.9994 51.5151 44.9994 52.6767 44.9994 55M35 23.75C35 29.2728 30.5228 33.75 25 33.75C19.4772 33.75 15 29.2728 15 23.75C15 18.2272 19.4772 13.75 25 13.75C30.5228 13.75 35 18.2272 35 23.75Z" stroke="#1E1E1E" stroke-width="4" stroke-linecap="round" stroke-linejoin="round"/>
</g>
</svg>
