<svg width="60" height="60" viewBox="0 0 60 60" fill="none" xmlns="http://www.w3.org/2000/svg">
<g id="route">
<path id="Icon" d="M28.75 12.5H29.836C37.4541 12.5 41.2632 12.5 42.7091 13.8682C43.959 15.0509 44.5129 16.7932 44.1754 18.4805C43.785 20.4325 40.6753 22.6321 34.4557 27.0313L24.2943 34.2187C18.0748 38.6179 14.965 40.8175 14.5746 42.7695C14.2371 44.4568 14.791 46.1991 16.0409 47.3818C17.4868 48.75 21.2959 48.75 28.914 48.75H31.25M20 12.5C20 16.6421 16.6421 20 12.5 20C8.35786 20 5 16.6421 5 12.5C5 8.35786 8.35786 5 12.5 5C16.6421 5 20 8.35786 20 12.5ZM55 47.5C55 51.6421 51.6421 55 47.5 55C43.3579 55 40 51.6421 40 47.5C40 43.3579 43.3579 40 47.5 40C51.6421 40 55 43.3579 55 47.5Z" stroke="#1E1E1E" stroke-width="4" stroke-linecap="round" stroke-linejoin="round"/>
</g>
</svg>
