<svg width="60" height="60" viewBox="0 0 60 60" fill="none" xmlns="http://www.w3.org/2000/svg">
<g id="helmet(3) 1">
<path id="Vector" d="M13.3786 19.0721L13.3795 19.0722C13.6165 19.0958 13.84 19.1574 14.047 19.244C16.1733 17.2965 18.664 15.7389 21.3608 14.6745C21.1813 13.131 22.1457 11.6877 23.6408 11.3188L13.3786 19.0721ZM13.3786 19.0721C12.624 18.9987 11.8829 19.2745 11.3733 19.8489C10.6452 20.6668 9.95492 21.5575 9.31519 22.4923C8.78947 23.2569 8.75797 24.2704 9.2233 25.0773L9.30128 25.2127C7.32949 28.7453 6.28125 32.7215 6.28125 36.7738C6.28125 37.6388 6.342 38.4692 6.4386 39.2723C4.19491 39.9317 2.55 42.0074 2.55 44.4631C2.55 47.4493 4.97908 49.8763 7.96313 49.8763H52.1287C55.1149 49.8763 57.5419 47.4472 57.5419 44.4631C57.5419 42.0075 55.897 39.9318 53.6533 39.2723M13.3786 19.0721L53.6533 39.2723M21.6922 17.2373L23.4862 31.1127L23.4863 31.113C23.6859 32.6491 25.0014 33.8075 26.55 33.8075H33.5419C35.0895 33.8075 36.4078 32.6519 36.6057 31.1127L21.6922 17.2373ZM21.6922 17.2373C19.4978 18.1799 17.4688 19.4836 15.7207 21.0877L19.0233 26.7965L19.0235 26.797C19.6902 27.9527 19.2885 29.431 18.1371 30.0965L18.1363 30.0969L15.712 31.4919C15.3332 31.71 14.9219 31.8144 14.5125 31.8144C13.6808 31.8144 12.8644 31.3827 12.4183 30.6067C12.4182 30.6064 12.418 30.6062 12.4179 30.606L10.8076 27.8207C9.49274 30.6241 8.77312 33.6691 8.77312 36.7738C8.77312 37.5616 8.82844 38.317 8.91842 39.05H51.1753C51.2653 38.317 51.3206 37.5616 51.3206 36.7738C51.3206 33.6691 50.601 30.6241 49.2861 27.8207L47.6755 30.6065C47.2295 31.3808 46.413 31.8125 45.5812 31.8125C45.1726 31.8125 44.7589 31.7084 44.3809 31.4895C44.3808 31.4895 44.3808 31.4894 44.3807 31.4894L41.9557 30.0951L41.9548 30.0946C40.8027 29.4287 40.404 27.9501 41.0702 26.7951L41.0704 26.7948L44.3713 21.0859C42.6231 19.4817 40.5941 18.1781 38.3997 17.2369L36.6057 31.1123L21.6922 17.2373ZM53.6533 39.2723C53.7499 38.4701 53.8106 37.6385 53.8106 36.7738C53.8106 32.7233 52.7624 28.7454 50.7906 25.2127L50.8686 25.0773C50.8686 25.0772 50.8687 25.0772 50.8687 25.0771C51.3338 24.2704 51.3024 23.2572 50.777 22.4927L53.6533 39.2723ZM46.7124 19.0722C47.4686 18.9965 48.2117 19.2752 48.7209 19.8494C48.721 19.8494 48.721 19.8495 48.7211 19.8496L48.3844 20.1481L46.7124 19.0722ZM46.7124 19.0722C46.4754 19.0957 46.252 19.1573 46.045 19.2439C43.9187 17.2948 41.428 15.7371 38.7311 14.6743C38.9104 13.133 37.9446 11.6879 36.4532 11.3207C32.3021 10.2925 27.788 10.2944 23.641 11.3187L46.7124 19.0722ZM43.2675 27.9789L46.9466 21.614C47.5553 22.3102 48.1414 23.066 48.6895 23.8631L45.5518 29.2933L43.2675 27.9789ZM48.7076 23.8318L48.7072 23.8324L48.7076 23.8318ZM35.852 13.7429L35.8535 13.7433C36.0896 13.8012 36.2926 14.0738 36.2512 14.3943L34.1306 30.7967L34.1304 30.798C34.0932 31.0922 33.8385 31.3175 33.54 31.3175H26.5481C26.251 31.3175 25.9948 31.0917 25.9577 30.798L25.9575 30.7967L23.8372 14.3981C23.8371 14.3978 23.8371 14.3976 23.8371 14.3973C23.7969 14.0717 24.0009 13.7985 24.2396 13.7393C26.1155 13.274 28.0704 13.04 30.045 13.04C32.0193 13.04 33.9741 13.2758 35.852 13.7429ZM13.1422 21.6153L16.8225 27.9789L14.5382 29.2933L11.3999 23.8621C11.9455 23.066 12.5309 22.3125 13.1422 21.6153ZM52.1269 47.3825H7.96313C6.35353 47.3825 5.04187 46.0709 5.04187 44.4613C5.04187 42.8537 6.35337 41.5419 7.96313 41.5419H52.1287C53.7384 41.5419 55.0498 42.8534 55.05 44.4608C55.0484 46.0727 53.7383 47.3825 52.1269 47.3825Z" fill="#1E1E1E" stroke="#1E1E1E" stroke-width="0.9"/>
</g>
</svg>
