<svg width="60" height="60" viewBox="0 0 60 60" fill="none" xmlns="http://www.w3.org/2000/svg">
<g id="mark_chat_unread_FILL1_wght400_GRAD0_opsz24 1">
<path id="Vector" d="M45.6364 18.6364C43.7424 18.6364 42.1326 17.9735 40.8068 16.6477C39.4811 15.322 38.8182 13.7121 38.8182 11.8182C38.8182 9.92424 39.4811 8.31439 40.8068 6.98864C42.1326 5.66288 43.7424 5 45.6364 5C47.5303 5 49.1401 5.66288 50.4659 6.98864C51.7917 8.31439 52.4545 9.92424 52.4545 11.8182C52.4545 13.7121 51.7917 15.322 50.4659 16.6477C49.1401 17.9735 47.5303 18.6364 45.6364 18.6364ZM7 55V14.0909C7 12.8409 7.44508 11.7708 8.33523 10.8807C9.22538 9.99053 10.2955 9.54545 11.5455 9.54545H34.5C34.3485 10.303 34.2727 11.0606 34.2727 11.8182C34.2727 12.5758 34.3485 13.3333 34.5 14.0909C35.0303 16.7424 36.3371 18.9205 38.4205 20.625C40.5038 22.3295 42.9091 23.1818 45.6364 23.1818C46.8485 23.1818 48.0417 22.9924 49.2159 22.6136C50.3901 22.2348 51.4697 21.6667 52.4545 20.9091V41.3636C52.4545 42.6136 52.0095 43.6837 51.1193 44.5739C50.2292 45.464 49.1591 45.9091 47.9091 45.9091H16.0909L7 55Z" fill="#1E1E1E"/>
</g>
</svg>
