<svg width="60" height="60" viewBox="0 0 60 60" fill="none" xmlns="http://www.w3.org/2000/svg">
<g id="notifications_active_FILL1_wght400_GRAD0_opsz24 1">
<path id="Vector" d="M10 47.5V42.5H15V25C15 21.5417 16.0417 18.4688 18.125 15.7813C20.2083 13.0938 22.9167 11.3333 26.25 10.5V8.75C26.25 7.70833 26.6146 6.82292 27.3438 6.09375C28.0729 5.36458 28.9583 5 30 5C31.0417 5 31.9271 5.36458 32.6562 6.09375C33.3854 6.82292 33.75 7.70833 33.75 8.75V10.5C37.0833 11.3333 39.7917 13.0938 41.875 15.7813C43.9583 18.4688 45 21.5417 45 25V42.5H50V47.5H10ZM30 55C28.625 55 27.4479 54.5104 26.4688 53.5313C25.4896 52.5521 25 51.375 25 50H35C35 51.375 34.5104 52.5521 33.5312 53.5313C32.5521 54.5104 31.375 55 30 55ZM5 25C5 20.8333 5.92708 17.0104 7.78125 13.5313C9.63542 10.0521 12.125 7.16667 15.25 4.875L18.1875 8.875C15.6875 10.7083 13.6979 13.0208 12.2188 15.8125C10.7396 18.6042 10 21.6667 10 25H5ZM50 25C50 21.6667 49.2604 18.6042 47.7812 15.8125C46.3021 13.0208 44.3125 10.7083 41.8125 8.875L44.75 4.875C47.875 7.16667 50.3646 10.0521 52.2188 13.5313C54.0729 17.0104 55 20.8333 55 25H50Z" fill="#1E1E1E"/>
</g>
</svg>
