<svg width="60" height="60" viewBox="0 0 60 60" fill="none" xmlns="http://www.w3.org/2000/svg">
<g id="sms_FILL1_wght400_GRAD0_opsz24 1">
<path id="Vector" d="M20 27.5C20.7083 27.5 21.3021 27.2604 21.7812 26.7812C22.2604 26.3021 22.5 25.7083 22.5 25C22.5 24.2917 22.2604 23.6979 21.7812 23.2188C21.3021 22.7396 20.7083 22.5 20 22.5C19.2917 22.5 18.6979 22.7396 18.2188 23.2188C17.7396 23.6979 17.5 24.2917 17.5 25C17.5 25.7083 17.7396 26.3021 18.2188 26.7812C18.6979 27.2604 19.2917 27.5 20 27.5ZM30 27.5C30.7083 27.5 31.3021 27.2604 31.7812 26.7812C32.2604 26.3021 32.5 25.7083 32.5 25C32.5 24.2917 32.2604 23.6979 31.7812 23.2188C31.3021 22.7396 30.7083 22.5 30 22.5C29.2917 22.5 28.6979 22.7396 28.2188 23.2188C27.7396 23.6979 27.5 24.2917 27.5 25C27.5 25.7083 27.7396 26.3021 28.2188 26.7812C28.6979 27.2604 29.2917 27.5 30 27.5ZM40 27.5C40.7083 27.5 41.3021 27.2604 41.7812 26.7812C42.2604 26.3021 42.5 25.7083 42.5 25C42.5 24.2917 42.2604 23.6979 41.7812 23.2188C41.3021 22.7396 40.7083 22.5 40 22.5C39.2917 22.5 38.6979 22.7396 38.2188 23.2188C37.7396 23.6979 37.5 24.2917 37.5 25C37.5 25.7083 37.7396 26.3021 38.2188 26.7812C38.6979 27.2604 39.2917 27.5 40 27.5ZM5 55V10C5 8.625 5.48958 7.44792 6.46875 6.46875C7.44792 5.48958 8.625 5 10 5H50C51.375 5 52.5521 5.48958 53.5312 6.46875C54.5104 7.44792 55 8.625 55 10V40C55 41.375 54.5104 42.5521 53.5312 43.5312C52.5521 44.5104 51.375 45 50 45H15L5 55Z" fill="#1E1E1E"/>
</g>
</svg>
