<svg width="18" height="18" viewBox="0 0 18 18" fill="none" xmlns="http://www.w3.org/2000/svg">
<g id="icon_email">
<path id="Icon" d="M2 5.25L7.71544 9.53658C8.17826 9.8837 8.40967 10.0573 8.66138 10.1245C8.88373 10.1839 9.11627 10.1839 9.33862 10.1245C9.59033 10.0573 9.82174 9.8837 10.2846 9.53658L16 5.25M5.36 15H12.64C13.8161 15 14.4042 15 14.8534 14.7548C15.2485 14.539 15.5698 14.1948 15.7711 13.7715C16 13.2902 16 12.6601 16 11.4V6.6C16 5.33988 16 4.70982 15.7711 4.22852C15.5698 3.80516 15.2485 3.46095 14.8534 3.24524C14.4042 3 13.8161 3 12.64 3H5.36C4.18389 3 3.59583 3 3.14662 3.24524C2.75148 3.46095 2.43022 3.80516 2.22889 4.22852C2 4.70982 2 5.33988 2 6.6V11.4C2 12.6601 2 13.2902 2.22889 13.7715C2.43022 14.1948 2.75148 14.539 3.14662 14.7548C3.59583 15 4.18389 15 5.36 15Z" stroke="#1E1E1E" stroke-linecap="round" stroke-linejoin="round"/>
</g>
</svg>
