<svg width="18" height="18" viewBox="0 0 18 18" fill="none" xmlns="http://www.w3.org/2000/svg">
<g id="icon_phone">
<path id="Icon" d="M6.10139 6.73954C6.62511 7.83033 7.33904 8.85266 8.24319 9.75681C9.14734 10.661 10.1697 11.3749 11.2605 11.8986C11.3543 11.9437 11.4012 11.9662 11.4606 11.9835C11.6715 12.045 11.9306 12.0008 12.1092 11.8729C12.1595 11.8369 12.2025 11.7939 12.2885 11.7079C12.5516 11.4448 12.6831 11.3133 12.8154 11.2273C13.3142 10.903 13.9572 10.903 14.456 11.2273C14.5883 11.3133 14.7198 11.4448 14.9829 11.7079L15.1295 11.8545C15.5294 12.2544 15.7294 12.4543 15.838 12.6691C16.054 13.0961 16.054 13.6005 15.838 14.0276C15.7294 14.2423 15.5294 14.4423 15.1295 14.8421L15.0109 14.9608C14.6124 15.3593 14.4131 15.5585 14.1422 15.7107C13.8416 15.8796 13.3747 16.001 13.0299 16C12.7192 15.9991 12.5068 15.9388 12.0821 15.8182C9.79956 15.1704 7.64573 13.948 5.84885 12.1511C4.05197 10.3543 2.82961 8.20044 2.18176 5.91791C2.06121 5.49318 2.00093 5.28082 2.00001 4.97009C1.99898 4.62529 2.1204 4.15839 2.28927 3.85778C2.44145 3.58686 2.64072 3.3876 3.03924 2.98908L3.15786 2.87046C3.55775 2.47057 3.75769 2.27062 3.97243 2.16201C4.39951 1.946 4.90386 1.946 5.33093 2.16201C5.54567 2.27062 5.74562 2.47057 6.14551 2.87046L6.29214 3.0171C6.55521 3.28016 6.68674 3.4117 6.77274 3.54396C7.09705 4.04277 7.09705 4.68581 6.77274 5.18461C6.68674 5.31688 6.55521 5.44842 6.29214 5.71148C6.20613 5.7975 6.16312 5.84051 6.12712 5.89078C5.99919 6.06944 5.95502 6.32848 6.01651 6.53944C6.03382 6.5988 6.05634 6.64571 6.10139 6.73954Z" stroke="#1E1E1E" stroke-linecap="round" stroke-linejoin="round"/>
</g>
</svg>
