<svg width="142" height="34" viewBox="0 0 142 34" fill="none" xmlns="http://www.w3.org/2000/svg">
<g id="&#208;&#156;&#208;&#144;&#208;&#175;&#208;&#154;">
<path d="M31.9947 0H34.3331V34H27.1583V16.1905L18.3358 26.7143H15.9973L7.17488 16.1905V34H0V0H2.33848L17.1666 18.0625L31.9947 0Z" fill="#1E1E1E"/>
<path d="M65.0444 34L63.0779 29.6488H48.7282L46.7617 34H39.0554L54.7338 0H57.1254L72.7507 34H65.0444ZM60.58 24.0327L55.9031 12.75L51.2261 24.0327H60.58Z" fill="#1E1E1E"/>
<path d="M90.6684 0.607144H103.052V34H95.8769V22.9196H91.3062L83.1215 34H75.4152L84.3971 21.756C82.1649 20.8452 80.3933 19.5129 79.0823 17.7589C77.8068 15.9712 77.169 13.9643 77.169 11.7381C77.169 8.43254 78.4091 5.75099 80.8893 3.69345C83.405 1.63591 86.6647 0.607144 90.6684 0.607144ZM95.8769 16.8988V6.62798H90.4559C88.6843 6.62798 87.2493 7.1002 86.1509 8.04464C85.0526 8.98909 84.5034 10.2371 84.5034 11.7887C84.5034 13.3403 85.0526 14.5883 86.1509 15.5327C87.2493 16.4435 88.6843 16.8988 90.4559 16.8988H95.8769Z" fill="#1E1E1E"/>
<path d="M142 34H133.337L118.296 16.5952V34H111.121V0.607144H118.296V16.0893L131.689 0.607144H140.246L126.8 16.3423L142 34Z" fill="#1E1E1E"/>
</g>
</svg>
